<?xml version="1.0" encoding="UTF-8" standalone="no"?>
<!DOCTYPE svg PUBLIC "-//W3C//DTD SVG 1.1//EN" "http://www.w3.org/Graphics/SVG/1.1/DTD/svg11.dtd">
<!-- Created with Vectornator (http://vectornator.io/) -->
<svg height="100%" stroke-miterlimit="10" style="fill-rule:nonzero;clip-rule:evenodd;stroke-linecap:round;stroke-linejoin:round;" version="1.1" viewBox="0 0 2384.24 1683.99" width="100%" xml:space="preserve" xmlns="http://www.w3.org/2000/svg" xmlns:vectornator="http://vectornator.io" xmlns:xlink="http://www.w3.org/1999/xlink">
<defs>
<clipPath id="TextBounds">
<rect height="97" transform="matrix(1 -0 -0 1 -1749.1 -747.936)" width="334.094" x="1749.1" y="747.936"/>
</clipPath>
<clipPath id="TextBounds_2">
<rect height="49" transform="matrix(1 -0 -0 1 -1749.1 -633.284)" width="378.527" x="1749.1" y="633.284"/>
</clipPath>
<clipPath id="TextBounds_3">
<rect height="97" transform="matrix(1 -0 -0 1 -1749.1 -470.167)" width="334.094" x="1749.1" y="470.167"/>
</clipPath>
<clipPath id="TextBounds_4">
<rect height="85" transform="matrix(1 -0 -0 1 -1722.18 -350.46)" width="326.528" x="1722.18" y="350.46"/>
</clipPath>
<clipPath id="TextBounds_5">
<rect height="97" transform="matrix(1 -0 -0 1 -1749.1 -895.187)" width="334.094" x="1749.1" y="895.187"/>
</clipPath>
<clipPath id="TextBounds_6">
<rect height="85" transform="matrix(1 -0 -0 1 -1019 -937.306)" width="205.241" x="1019" y="937.306"/>
</clipPath>
<clipPath id="TextBounds_7">
<rect height="85" transform="matrix(1 -0 -0 1 -873.063 -1262.78)" width="465.827" x="873.063" y="1262.78"/>
</clipPath>
<clipPath id="TextBounds_8">
<rect height="575.861" transform="matrix(1 -0 -0 1 -370.905 -348.114)" width="77.2166" x="370.905" y="348.114"/>
</clipPath>
<clipPath id="TextBounds_9">
<rect height="37" transform="matrix(1 -0 -0 1 -684.361 -636.044)" width="159.636" x="684.361" y="636.044"/>
</clipPath>
<clipPath id="TextBounds_10">
<rect height="73" transform="matrix(1 -0 -0 1 -561.371 -777.921)" width="159.636" x="561.371" y="777.921"/>
</clipPath>
<clipPath id="TextBounds_11">
<rect height="73" transform="matrix(1 -0 -0 1 -934.165 -424.65)" width="159.636" x="934.165" y="424.65"/>
</clipPath>
<clipPath id="TextBounds_12">
<rect height="37" transform="matrix(1 -0 -0 1 -681.526 -959.074)" width="159.636" x="681.526" y="959.074"/>
</clipPath>
<clipPath id="TextBounds_13">
<rect height="37" transform="matrix(1 -0 -0 1 -561.371 -1169.45)" width="159.636" x="561.371" y="1169.45"/>
</clipPath>
<clipPath id="TextBounds_14">
<rect height="37" transform="matrix(1 -0 -0 1 -679.258 -1236.87)" width="159.636" x="679.258" y="1236.87"/>
</clipPath>
<clipPath id="TextBounds_15">
<rect height="73" transform="matrix(1 -0 -0 1 -1168.41 -352.491)" width="159.636" x="1168.41" y="352.491"/>
</clipPath>
<clipPath id="TextBounds_16">
<rect height="61" transform="matrix(1 -0 -0 1 -554.95 -1506.47)" width="578.098" x="554.95" y="1506.47"/>
</clipPath>
<clipPath id="TextBounds_17">
<rect height="430.832" transform="matrix(-1.83697e-16 1 -1 -1.83697e-16 1094.02 -139.368)" width="61" x="139.368" y="663.189"/>
</clipPath>
<clipPath id="TextBounds_18">
<rect height="37" transform="matrix(1 -0 -0 1 -1347.64 -1518.47)" width="69.6504" x="1347.64" y="1518.47"/>
</clipPath>
<clipPath id="TextBounds_19">
<rect height="69.6504" transform="matrix(6.12323e-17 1 -1 6.12323e-17 374.964 -151.368)" width="37" x="151.368" y="305.314"/>
</clipPath>
<clipPath id="TextBounds_20">
<rect height="37" transform="matrix(1 -0 -0 1 -278.404 -1518.47)" width="69.6504" x="278.404" y="1518.47"/>
</clipPath>
<clipPath id="TextBounds_21">
<rect height="69.6504" transform="matrix(6.12323e-17 1 -1 6.12323e-17 1451.9 -151.368)" width="37" x="151.368" y="1382.25"/>
</clipPath>
</defs>
<clipPath id="ArtboardFrame">
<rect height="1683.99" width="2384.24" x="0" y="0"/>
</clipPath>
<g clip-path="url(#ArtboardFrame)" id="Livello-2" vectornator:layerName="Livello 2">
<path d="M-341.567-486.855L2725.8-486.855C2783.25-486.855 2829.82-440.287 2829.82-382.842L2829.82 1932.66C2829.82 1990.1 2783.25 2036.67 2725.8 2036.67L-341.567 2036.67C-399.012 2036.67-445.58 1990.1-445.58 1932.66L-445.58-382.842C-445.58-440.287-399.012-486.855-341.567-486.855Z" fill="#fdf6e3" fill-rule="nonzero" opacity="0" stroke="none"/>
<g opacity="1">
<g opacity="1">
<path d="M239.373 239.372C239.373 301.427 239.373 1481.36 239.373 1481.36" fill="none" stroke="#292929" stroke-linecap="round" stroke-linejoin="round" stroke-width="10"/>
<g fill="#292929" stroke="none">
<path d="M273.243 267.873L243.243 231.206L239.373 226.476L235.504 231.206L205.504 267.872C203.755 270.01 204.07 273.16 206.207 274.908C208.344 276.657 211.495 276.342 213.243 274.205L243.243 237.538L235.504 237.538L265.504 274.205C267.252 276.342 270.402 276.657 272.54 274.908C274.677 273.16 274.992 270.01 273.243 267.873Z" fill="#292929"/>
</g>
</g>
<g opacity="1">
<path d="M1481.36 1481.36C1419.3 1481.36 239.373 1481.36 239.373 1481.36" fill="none" stroke="#292929" stroke-linecap="round" stroke-linejoin="round" stroke-width="10"/>
<g fill="#292929" stroke="none">
<path d="M1452.86 1515.23L1489.53 1485.23L1494.26 1481.36L1489.53 1477.49L1452.86 1447.49C1450.72 1445.74 1447.57 1446.06 1445.82 1448.19C1444.08 1450.33 1444.39 1453.48 1446.53 1455.23L1483.19 1485.23L1483.19 1477.49L1446.53 1507.49C1444.39 1509.24 1444.08 1512.39 1445.82 1514.52C1447.57 1516.66 1450.72 1516.98 1452.86 1515.23Z" fill="#292929"/>
</g>
</g>
</g>
<g opacity="1">
<path d="M270.708 305.314L1417.29 305.314L1417.29 1451.9L270.708 1451.9L270.708 305.314Z" fill="#f9b59c" fill-rule="nonzero" opacity="1" stroke="none"/>
<path d="M561.371 305.314L1417.29 305.314L1417.29 1451.9L561.371 1451.9L561.371 305.314Z" fill="#ff3c3e" fill-rule="nonzero" opacity="0.271318" stroke="none"/>
<path d="M843.996 305.314L1417.29 305.314L1417.29 1163.02L843.996 1163.02L843.996 305.314Z" fill="#ff3c3e" fill-rule="nonzero" opacity="0.271318" stroke="none"/>
</g>
<g opacity="1">
<g opacity="1">
<path d="M458.125 993.287C480.152 958.568 521.552 931.234 559.133 917.847C572.898 912.943 586.371 911.644 599.944 907.011" fill="none" stroke="#755c53" stroke-linecap="round" stroke-linejoin="round" stroke-width="10"/>
<g fill="#755c53" stroke="none">
<path d="M442.526 951.861L450.755 998.516L451.816 1004.53L457.505 1002.3L501.607 984.997C504.178 983.988 505.444 981.087 504.435 978.516C503.427 975.946 500.525 974.679 497.954 975.688L453.853 992.993L460.603 996.779L452.374 950.124C451.894 947.404 449.3 945.589 446.581 946.068C443.862 946.548 442.046 949.141 442.526 951.861Z" fill="#755c53"/>
</g>
</g>
<g opacity="1">
<path d="M519.051 1362.88C558.47 1329.72 613.937 1316.96 664.538 1316.96C675.694 1316.96 686.859 1317.3 697.99 1318.07C707.69 1318.74 716.167 1318.24 724.751 1322.53" fill="none" stroke="#755c53" stroke-linecap="round" stroke-linejoin="round" stroke-width="10"/>
<g fill="#755c53" stroke="none">
<path d="M517.172 1318.65L510.417 1365.55L509.545 1371.59L515.647 1371.25L562.947 1368.59C565.704 1368.43 567.814 1366.07 567.658 1363.31C567.503 1360.56 565.142 1358.45 562.385 1358.6L515.084 1361.27L520.314 1366.97L527.07 1320.08C527.464 1317.35 525.567 1314.81 522.834 1314.42C520.101 1314.02 517.566 1315.92 517.172 1318.65Z" fill="#755c53"/>
</g>
</g>
<g opacity="1">
<path d="M441.397 1275.42C449.662 1271.34 457.731 1266.01 466.17 1262.9C515.158 1244.9 570.616 1232.61 622.41 1242.3" fill="none" stroke="#755c53" stroke-linecap="round" stroke-linejoin="round" stroke-width="10"/>
<g fill="#755c53" stroke="none">
<path d="M455.921 1233.6L432.388 1274.72L429.352 1280.03L435.152 1281.95L480.115 1296.88C482.736 1297.75 485.566 1296.33 486.436 1293.71C487.306 1291.09 485.886 1288.26 483.265 1287.39L438.302 1272.46L441.067 1279.69L464.6 1238.57C465.972 1236.18 465.141 1233.12 462.744 1231.75C460.348 1230.38 457.293 1231.21 455.921 1233.6Z" fill="#755c53"/>
</g>
</g>
</g>
<g opacity="1">
<g opacity="1">
<path d="M458.125 993.287C480.152 958.568 521.552 931.234 559.133 917.847C572.898 912.943 586.371 911.644 599.944 907.011" fill="none" stroke="#755c53" stroke-linecap="round" stroke-linejoin="round" stroke-width="10"/>
<g fill="#755c53" stroke="none">
<path d="M442.526 951.861L450.755 998.516L451.816 1004.53L457.505 1002.3L501.607 984.997C504.178 983.988 505.444 981.087 504.435 978.516C503.427 975.946 500.525 974.679 497.954 975.688L453.853 992.993L460.603 996.779L452.374 950.124C451.894 947.404 449.3 945.589 446.581 946.068C443.862 946.548 442.046 949.141 442.526 951.861Z" fill="#755c53"/>
</g>
</g>
<g opacity="1">
<path d="M519.051 1362.88C558.47 1329.72 613.937 1316.96 664.538 1316.96C675.694 1316.96 686.859 1317.3 697.99 1318.07C707.69 1318.74 716.167 1318.24 724.751 1322.53" fill="none" stroke="#755c53" stroke-linecap="round" stroke-linejoin="round" stroke-width="10"/>
<g fill="#755c53" stroke="none">
<path d="M517.172 1318.65L510.417 1365.55L509.545 1371.59L515.647 1371.25L562.947 1368.59C565.704 1368.43 567.814 1366.07 567.658 1363.31C567.503 1360.56 565.142 1358.45 562.385 1358.6L515.084 1361.27L520.314 1366.97L527.07 1320.08C527.464 1317.35 525.567 1314.81 522.834 1314.42C520.101 1314.02 517.566 1315.92 517.172 1318.65Z" fill="#755c53"/>
</g>
</g>
<g opacity="1">
<path d="M441.397 1275.42C449.662 1271.34 457.731 1266.01 466.17 1262.9C515.158 1244.9 570.616 1232.61 622.41 1242.3" fill="none" stroke="#755c53" stroke-linecap="round" stroke-linejoin="round" stroke-width="10"/>
<g fill="#755c53" stroke="none">
<path d="M455.921 1233.6L432.388 1274.72L429.352 1280.03L435.152 1281.95L480.115 1296.88C482.736 1297.75 485.566 1296.33 486.436 1293.71C487.306 1291.09 485.886 1288.26 483.265 1287.39L438.302 1272.46L441.067 1279.69L464.6 1238.57C465.972 1236.18 465.141 1233.12 462.744 1231.75C460.348 1230.38 457.293 1231.21 455.921 1233.6Z" fill="#755c53"/>
</g>
</g>
</g>
<g opacity="1">
<path d="M596.1 895.187C596.1 871.372 615.405 852.067 639.22 852.067C663.034 852.067 682.339 871.372 682.339 895.187C682.339 919.001 663.034 938.307 639.22 938.307C615.405 938.307 596.1 919.001 596.1 895.187Z" fill="#ff3c3e" fill-rule="nonzero" opacity="1" stroke="#fdf6e3" stroke-linecap="round" stroke-linejoin="round" stroke-width="7"/>
<path d="M348.055 1298.63C348.055 1274.82 367.36 1255.51 391.174 1255.51C414.989 1255.51 434.294 1274.82 434.294 1298.63C434.294 1322.45 414.989 1341.75 391.174 1341.75C367.36 1341.75 348.055 1322.45 348.055 1298.63Z" fill="#ff3c3e" fill-opacity="0.344086" fill-rule="nonzero" opacity="1" stroke="#fdf6e3" stroke-linecap="round" stroke-linejoin="round" stroke-width="7"/>
<path d="M424.894 1384.87C424.894 1361.06 444.199 1341.75 468.014 1341.75C491.828 1341.75 511.133 1361.06 511.133 1384.87C511.133 1408.69 491.828 1427.99 468.014 1427.99C444.199 1427.99 424.894 1408.69 424.894 1384.87Z" fill="#ff3c3e" fill-opacity="0.344086" fill-rule="nonzero" opacity="1" stroke="#fdf6e3" stroke-linecap="round" stroke-linejoin="round" stroke-width="7"/>
<path d="M712.375 722.927C712.375 699.113 731.681 679.807 755.495 679.807C779.309 679.807 798.615 699.113 798.615 722.927C798.615 746.742 779.309 766.047 755.495 766.047C731.681 766.047 712.375 746.742 712.375 722.927Z" fill="#ff3c3e" fill-rule="nonzero" opacity="1" stroke="#fdf6e3" stroke-linecap="round" stroke-linejoin="round" stroke-width="7"/>
<path d="M975.879 548.057C975.879 524.242 995.184 504.937 1019 504.937C1042.81 504.937 1062.12 524.242 1062.12 548.057C1062.12 571.871 1042.81 591.177 1019 591.177C995.184 591.177 975.879 571.871 975.879 548.057Z" fill="#ff3c3e" fill-rule="nonzero" opacity="1" stroke="#fdf6e3" stroke-linecap="round" stroke-linejoin="round" stroke-width="7"/>
<path d="M1206.06 474.687C1206.06 450.873 1225.36 431.567 1249.18 431.567C1272.99 431.567 1292.3 450.873 1292.3 474.687C1292.3 498.502 1272.99 517.807 1249.18 517.807C1225.36 517.807 1206.06 498.502 1206.06 474.687Z" fill="#fdf6e3" fill-rule="nonzero" opacity="1" stroke="#292929" stroke-linecap="round" stroke-linejoin="round" stroke-width="7"/>
<path d="M715.21 1045.29C715.21 1021.47 734.516 1002.17 758.33 1002.17C782.144 1002.17 801.45 1021.47 801.45 1045.29C801.45 1069.1 782.144 1088.41 758.33 1088.41C734.516 1088.41 715.21 1069.1 715.21 1045.29Z" fill="#ff3c3e" fill-rule="nonzero" opacity="1" stroke="#fdf6e3" stroke-linecap="round" stroke-linejoin="round" stroke-width="7"/>
<path d="M596.1 1255.51C596.1 1231.7 615.405 1212.39 639.22 1212.39C663.034 1212.39 682.339 1231.7 682.339 1255.51C682.339 1279.33 663.034 1298.63 639.22 1298.63C615.405 1298.63 596.1 1279.33 596.1 1255.51Z" fill="#ff3c3e" fill-rule="nonzero" opacity="1" stroke="#fdf6e3" stroke-linecap="round" stroke-linejoin="round" stroke-width="7"/>
<path d="M712.375 1323.06C712.375 1299.24 731.681 1279.94 755.495 1279.94C779.309 1279.94 798.615 1299.24 798.615 1323.06C798.615 1346.87 779.309 1366.18 755.495 1366.18C731.681 1366.18 712.375 1346.87 712.375 1323.06Z" fill="#ff3c3e" fill-rule="nonzero" opacity="1" stroke="#fdf6e3" stroke-linecap="round" stroke-linejoin="round" stroke-width="7"/>
</g>
<g opacity="1">
<path d="M1567.44 309.628L2203.45 309.628L2203.45 1077.96L1567.44 1077.96L1567.44 309.628Z" fill="#f9b59c" fill-rule="nonzero" opacity="1" stroke="none"/>
<path d="M1633.78 660.666C1633.78 636.852 1653.09 617.546 1676.9 617.546C1700.71 617.546 1720.02 636.852 1720.02 660.666C1720.02 684.481 1700.71 703.786 1676.9 703.786C1653.09 703.786 1633.78 684.481 1633.78 660.666Z" fill="#fdf6e3" fill-rule="nonzero" opacity="1" stroke="#292929" stroke-linecap="round" stroke-linejoin="round" stroke-width="7"/>
<path d="M1633.78 796.92C1633.78 773.106 1653.09 753.8 1676.9 753.8C1700.71 753.8 1720.02 773.106 1720.02 796.92C1720.02 820.735 1700.71 840.04 1676.9 840.04C1653.09 840.04 1633.78 820.735 1633.78 796.92Z" fill="#ff3c3e" fill-opacity="0.344086" fill-rule="nonzero" opacity="1" stroke="#fdf6e3" stroke-linecap="round" stroke-linejoin="round" stroke-width="7"/>
<path d="M1633.78 521.483C1633.78 497.669 1653.09 478.363 1676.9 478.363C1700.71 478.363 1720.02 497.669 1720.02 521.483C1720.02 545.298 1700.71 564.603 1676.9 564.603C1653.09 564.603 1633.78 545.298 1633.78 521.483Z" fill="#ff3c3e" fill-rule="nonzero" opacity="1" stroke="#fdf6e3" stroke-linecap="round" stroke-linejoin="round" stroke-width="7"/>
<text clip-path="url(#TextBounds)" fill="#292929" font-family="Helvetica-Bold" font-size="40" opacity="1" stroke="none" text-anchor="start" transform="matrix(1 0 0 1 1749.1 747.936)" vectornator:width="334.094" x="0" y="0">
<tspan textLength="242.207" x="0" y="39">Sub-domain 
</tspan>
<tspan textLength="306.602" x="0" y="87">(future position)</tspan>
</text>
<text clip-path="url(#TextBounds_2)" fill="#292929" font-family="Helvetica-Bold" font-size="40" opacity="1" stroke="none" text-anchor="start" transform="matrix(1 0 0 1 1749.1 633.284)" vectornator:width="378.527" x="0" y="0">
<tspan textLength="375.527" x="0" y="39">Big-bet sub-domain</tspan>
</text>
<text clip-path="url(#TextBounds_3)" fill="#292929" font-family="Helvetica-Bold" font-size="40" opacity="1" stroke="none" text-anchor="start" transform="matrix(1 0 0 1 1749.1 470.167)" vectornator:width="334.094" x="0" y="0">
<tspan textLength="242.207" x="0" y="39">Sub-domain 
</tspan>
<tspan textLength="331.094" x="0" y="87">(current position)</tspan>
</text>
<text clip-path="url(#TextBounds_4)" fill="#292929" font-family="Helvetica-Bold" font-size="70" opacity="1" stroke="none" text-anchor="middle" transform="matrix(1 0 0 1 1722.18 350.46)" vectornator:width="326.528" x="0" y="0">
<tspan textLength="283.828" x="163.264" y="68">Notation</tspan>
</text>
<g opacity="1">
<path d="M1646.3 993.936C1649.33 983.815 1652.29 970.8 1655.39 963.181C1673.69 918.204 1694.4 887.474 1713.74 911.692" fill="none" stroke="#755c53" stroke-linecap="round" stroke-linejoin="round" stroke-width="10"/>
<g fill="#755c53" stroke="none">
<path d="M1625 955.133L1639.74 1000.16L1641.64 1005.96L1646.96 1002.95L1688.17 979.58C1690.57 978.218 1691.42 975.166 1690.05 972.764C1688.69 970.362 1685.64 969.519 1683.24 970.881L1642.03 994.25L1649.24 997.043L1634.5 952.021C1633.64 949.396 1630.82 947.966 1628.19 948.825C1625.57 949.685 1624.14 952.509 1625 955.133Z" fill="#755c53"/>
</g>
</g>
<text clip-path="url(#TextBounds_5)" fill="#292929" font-family="Helvetica-Bold" font-size="40" opacity="1" stroke="none" text-anchor="start" transform="matrix(1 0 0 1 1749.1 895.187)" vectornator:width="334.094" x="0" y="0">
<tspan textLength="304.531" x="0" y="39">Movement over </tspan>
<tspan textLength="82.2461" x="0" y="87">time</tspan>
</text>
</g>
<g opacity="1">
<text clip-path="url(#TextBounds_6)" fill="#292929" font-family="Helvetica-Bold" font-size="70" opacity="1" stroke="none" text-anchor="middle" transform="matrix(1 0 0 1 1019 937.306)" vectornator:width="205.241" x="0" y="0">
<tspan textLength="202.241" x="102.621" y="68">CORE</tspan>
</text>
<text clip-path="url(#TextBounds_7)" fill="#292929" font-family="Helvetica-Bold" font-size="70" opacity="1" stroke="none" text-anchor="middle" transform="matrix(1 0 0 1 873.063 1262.78)" vectornator:width="465.827" x="0" y="0">
<tspan textLength="462.827" x="232.914" y="68">SUPPORTING</tspan>
</text>
<text clip-path="url(#TextBounds_8)" fill="#292929" font-family="Helvetica-Bold" font-size="70" opacity="1" stroke="none" text-anchor="middle" transform="matrix(1 0 0 1 370.905 348.114)" vectornator:width="77.2166" x="0" y="0">
<tspan textLength="54.4482" x="38.6083" y="68">G
</tspan>
<tspan textLength="46.6895" x="38.6083" y="152">E
</tspan>
<tspan textLength="50.5518" x="38.6083" y="236">N
</tspan>
<tspan textLength="46.6895" x="38.6083" y="320">E</tspan>
<tspan textLength="50.5518" x="38.6083" y="404">R
</tspan>
<tspan textLength="19.4482" x="38.6083" y="488">I
</tspan>
<tspan textLength="50.5518" x="38.6083" y="572">C</tspan>
</text>
<text clip-path="url(#TextBounds_9)" fill="#292929" font-family="Helvetica-Bold" font-size="30" opacity="1" stroke="none" text-anchor="middle" transform="matrix(1 0 0 1 684.361 636.044)" vectornator:width="159.636" x="0" y="0">
<tspan textLength="156.636" x="79.8179" y="29">production</tspan>
</text>
<text clip-path="url(#TextBounds_10)" fill="#292929" font-family="Helvetica-Bold" font-size="30" opacity="1" stroke="none" text-anchor="middle" transform="matrix(1 0 0 1 561.371 777.921)" vectornator:width="159.636" x="0" y="0">
<tspan textLength="78.3545" x="79.8179" y="29">client
</tspan>
<tspan textLength="101.704" x="83.9854" y="65">orders </tspan>
</text>
<text clip-path="url(#TextBounds_11)" fill="#292929" font-family="Helvetica-Bold" font-size="30" opacity="1" stroke="none" text-anchor="middle" transform="matrix(1 0 0 1 934.165 424.65)" vectornator:width="159.636" x="0" y="0">
<tspan textLength="156.636" x="79.8179" y="29">production
</tspan>
<tspan textLength="124.98" x="79.8179" y="65">planning</tspan>
</text>
<text clip-path="url(#TextBounds_12)" fill="#292929" font-family="Helvetica-Bold" font-size="30" opacity="1" stroke="none" text-anchor="middle" transform="matrix(1 0 0 1 681.526 959.074)" vectornator:width="159.636" x="0" y="0">
<tspan textLength="123.354" x="79.8179" y="29">stocking</tspan>
</text>
<text clip-path="url(#TextBounds_13)" fill="#292929" font-family="Helvetica-Bold" font-size="30" opacity="1" stroke="none" text-anchor="middle" transform="matrix(1 0 0 1 561.371 1169.45)" vectornator:width="159.636" x="0" y="0">
<tspan textLength="151.714" x="79.8179" y="29">restocking</tspan>
</text>
<text clip-path="url(#TextBounds_14)" fill="#292929" font-family="Helvetica-Bold" font-size="30" opacity="1" stroke="none" text-anchor="middle" transform="matrix(1 0 0 1 679.258 1236.87)" vectornator:width="159.636" x="0" y="0">
<tspan textLength="100.005" x="79.8179" y="29">pricing</tspan>
</text>
<text clip-path="url(#TextBounds_15)" fill="#292929" font-family="Helvetica-Bold" font-size="30" opacity="1" stroke="none" text-anchor="middle" transform="matrix(1 0 0 1 1168.41 352.491)" vectornator:width="159.636" x="0" y="0">
<tspan textLength="68.3643" x="83.9854" y="29">milk </tspan>
<tspan textLength="124.98" x="79.8179" y="65">planning</tspan>
</text>
</g>
<text clip-path="url(#TextBounds_16)" fill="#292929" font-family="Helvetica-Bold" font-size="50" opacity="1" stroke="none" text-anchor="start" transform="matrix(1 0 0 1 554.95 1506.47)" vectornator:width="578.098" x="0" y="0">
<tspan textLength="575.098" x="0" y="49">Business Differentiation</tspan>
</text>
<text clip-path="url(#TextBounds_17)" fill="#292929" font-family="Helvetica-Bold" font-size="50" opacity="1" stroke="none" text-anchor="start" transform="matrix(-1.83697e-16 -1 1 -1.83697e-16 139.368 1094.02)" vectornator:width="430.832" x="0" y="0">
<tspan textLength="427.832" x="0" y="49">Model Complexity</tspan>
</text>
<text clip-path="url(#TextBounds_18)" fill="#292929" font-family="Helvetica-Bold" font-size="30" opacity="1" stroke="none" text-anchor="middle" transform="matrix(1 0 0 1 1347.64 1518.47)" vectornator:width="69.6504" x="0" y="0">
<tspan textLength="66.6504" x="34.8252" y="29">High</tspan>
</text>
<text clip-path="url(#TextBounds_19)" fill="#292929" font-family="Helvetica-Bold" font-size="30" opacity="1" stroke="none" text-anchor="middle" transform="matrix(6.12323e-17 -1 1 6.12323e-17 151.368 374.964)" vectornator:width="69.6504" x="0" y="0">
<tspan textLength="66.6504" x="34.8252" y="29">High</tspan>
</text>
<text clip-path="url(#TextBounds_20)" fill="#292929" font-family="Helvetica-Bold" font-size="30" opacity="1" stroke="none" text-anchor="middle" transform="matrix(1 0 0 1 278.404 1518.47)" vectornator:width="69.6504" x="0" y="0">
<tspan textLength="59.9854" x="34.8252" y="29">Low</tspan>
</text>
<text clip-path="url(#TextBounds_21)" fill="#292929" font-family="Helvetica-Bold" font-size="30" opacity="1" stroke="none" text-anchor="middle" transform="matrix(6.12323e-17 -1 1 6.12323e-17 151.368 1451.9)" vectornator:width="69.6504" x="0" y="0">
<tspan textLength="59.9854" x="34.8252" y="29">Low</tspan>
</text>
<path d="M386.229 1050.9C386.229 1027.09 405.534 1007.78 429.349 1007.78C453.163 1007.78 472.469 1027.09 472.469 1050.9C472.469 1074.72 453.163 1094.02 429.349 1094.02C405.534 1094.02 386.229 1074.72 386.229 1050.9Z" fill="#ff3c3e" fill-opacity="0.344086" fill-rule="nonzero" opacity="1" stroke="#fdf6e3" stroke-linecap="round" stroke-linejoin="round" stroke-width="7"/>
</g>
</svg>
